PathFileType	4	(X/Y/Z)	flex.trc
DataRate	CameraRate	NumFrames	NumMarkers	Units	OrigDataRate	OrigDataStartFrame	OrigNumFrames
100.0	100.0	7	17	mm	100.0	170	1352
Frame#	Time	STER			XIPH			T10			T1			CLAV_AC			SCAP_AA			SCAP_CP			SCAP_TS			SCAP_IA			DELT			ARMl			EPICm			EPICl			LARM_elb			STYLr			STYLu			CLAV_SC		
		X1	Y1	Z1	X2	Y2	Z2	X3	Y3	Z3	X4	Y4	Z4	X5	Y5	Z5	X6	Y6	Z6	X7	Y7	Z7	X8	Y8	Z8	X9	Y9	Z9	X10	Y10	Z10	X11	Y11	Z11	X12	Y12	Z12	X13	Y13	Z13	X14	Y14	Z14	X15	Y15	Z15	X16	Y16	Z16	X17	Y17	Z17

170	1.69	394.0145568847656	91.21720123291016	1427.297119140625	390.3336486816406	134.34996032714844	1266.3282470703125	383.78173828125	-98.80864715576172	1242.992431640625	383.8545837402344	-66.93777465820312	1476.80126953125	585.9712524414062	24.185535430908203	1445.9569091796875	592.9509887695312	-22.26654815673828	1433.369140625	537.6419677734375	-31.56891632080078	1467.8944091796875	520.8357543945312	-93.02003479003906	1421.1422119140625	493.978271484375	-115.98574829101562	1282.902587890625	650.014892578125	-1.0713590383529663	1294.2554931640625	666.130126953125	-13.61978816986084	1247.283935546875	627.82568359375	-8.409635543823242	1084.84326171875	719.1395874023438	-13.111751556396484	1136.861572265625	664.0490112304688	-39.969722747802734	1083.11376953125	802.21923828125	134.3682861328125	913.5720825195312	756.297607421875	75.62355041503906	880.3856201171875	431.5111389160156	85.11858367919922	1431.47265625
171	1.7	394.09197998046875	91.11405181884766	1427.2623291015625	390.2726745605469	134.2071990966797	1266.32470703125	383.9427795410156	-98.85765838623047	1242.9971923828125	384.25677490234375	-67.0522232055664	1476.7835693359375	586.152099609375	24.86404800415039	1445.5557861328125	593.5918579101562	-21.51644515991211	1433.009033203125	537.9816284179688	-31.1407413482666	1467.65283203125	521.3916625976562	-92.67366027832031	1421.0194091796875	494.3035888671875	-115.94453430175781	1282.9620361328125	650.126953125	0.3362785577774048	1293.6778564453125	666.0320434570312	-11.94312858581543	1246.5562744140625	627.0612182617188	-7.15915584564209	1084.1097412109375	718.0985717773438	-10.538860321044922	1135.6058349609375	663.5841064453125	-38.29302215576172	1082.326416015625	798.8006591796875	137.97366333007812	912.3400268554688	754.25390625	78.29012298583984	879.3936767578125	431.4861145019531	85.06770324707031	1431.4013671875
172	1.71	394.12646484375	91.00043487548828	1427.245849609375	390.3043518066406	134.0640869140625	1266.3143310546875	384.1365051269531	-98.96472930908203	1243.0150146484375	384.65240478515625	-67.191650390625	1476.7733154296875	586.296630859375	25.5184326171875	1445.166015625	593.9290771484375	-20.782058715820312	1432.6015625	538.38916015625	-30.689992904663086	1467.476806640625	521.9585571289062	-92.3348617553711	1420.969482421875	494.66937255859375	-115.90361785888672	1282.9735107421875	650.169189453125	1.7920418977737427	1292.99072265625	665.8778076171875	-10.18813419342041	1245.747314453125	625.779052734375	-6.65248966217041	1083.3055419921875	717.5357055664062	-8.196874618530273	1134.6375732421875	663.0941772460938	-36.48836135864258	1081.5419921875	795.2831420898438	141.79273986816406	911.23193359375	751.6655883789062	81.26828002929688	878.4027709960938	431.4720764160156	85.08251190185547	1431.31787109375
173	1.72	394.0672607421875	90.83320617675781	1427.2159423828125	390.2848815917969	133.93161010742188	1266.3021240234375	384.3264465332031	-99.06961822509766	1242.986328125	384.9922180175781	-67.33463287353516	1476.74560546875	586.4361572265625	26.165565490722656	1444.8216552734375	594.44091796875	-20.063093185424805	1432.220947265625	538.7962646484375	-30.266239166259766	1467.2437744140625	522.4837646484375	-92.01152801513672	1420.9412841796875	495.0007629394531	-115.83558654785156	1283.030517578125	650.4028930664062	3.325167417526245	1292.3712158203125	666.0789794921875	-8.376330375671387	1245.16015625	624.89111328125	-5.163041591644287	1082.7777099609375	716.947509765625	-5.7489519119262695	1133.7109375	662.6084594726562	-34.579219818115234	1080.7620849609375	791.7523803710938	145.77548217773438	910.244140625	748.9365234375	84.56417083740234	877.4972534179688	431.56719970703125	84.95738983154297	1431.217041015625
174	1.73	394.09619140625	90.70929718017578	1427.19873046875	390.28997802734375	133.76637268066406	1266.299072265625	384.4911804199219	-99.1558837890625	1242.97705078125	385.31011962890625	-67.47579193115234	1476.733154296875	586.5732421875	26.77959632873535	1444.46240234375	594.8508911132812	-19.35629653930664	1431.8746337890625	539.3250732421875	-29.835432052612305	1467.1407470703125	523.0758666992188	-91.72268676757812	1420.8660888671875	495.15057373046875	-115.80529022216797	1283.174072265625	650.4375	4.817488670349121	1291.7716064453125	665.6306762695312	-6.5892462730407715	1244.3848876953125	624.032470703125	-3.605295181274414	1082.1907958984375	716.337646484375	-3.2044107913970947	1132.7880859375	662.125	-32.554649353027344	1079.9820556640625	788.2120971679688	149.89027404785156	909.3683471679688	746.5178833007812	87.65142822265625	876.6547241210938	431.50128173828125	84.90179443359375	1431.2003173828125
175	1.74	394.23797607421875	90.55952453613281	1427.17529296875	390.34869384765625	133.62576293945312	1266.29638671875	384.6954650878906	-99.25357818603516	1242.98095703125	385.6309509277344	-67.61199951171875	1476.6824951171875	586.6699829101562	27.37523078918457	1444.1513671875	595.1489868164062	-18.695960998535156	1431.5357666015625	539.6459350585938	-29.431243896484375	1466.9464111328125	523.6071166992188	-91.43952178955078	1420.8629150390625	495.6943664550781	-115.79297637939453	1283.17919921875	650.1727294921875	6.320384979248047	1291.19580078125	665.7205810546875	-4.692860126495361	1243.7216796875	623.111328125	-1.5412296056747437	1081.8900146484375	715.7138671875	-0.5641892552375793	1131.90673828125	661.610595703125	-30.435089111328125	1079.1890869140625	784.7051391601562	154.1894989013672	908.6452026367188	744.5302734375	90.74755859375	875.9678344726562	431.6106262207031	84.86912536621094	1431.1005859375
176	1.75	394.10546875	90.33426666259766	1427.1756591796875	390.3855895996094	133.4380645751953	1266.288818359375	384.85247802734375	-99.38534545898438	1242.9666748046875	386.0007629394531	-67.78598022460938	1476.6358642578125	586.818115234375	27.976089477539062	1443.814453125	595.4500732421875	-18.03624153137207	1431.161376953125	539.9848022460938	-29.179723739624023	1466.8780517578125	524.1358032226562	-91.20101928710938	1420.8380126953125	496.0672302246094	-115.75814819335938	1283.283935546875	649.6163330078125	7.756528377532959	1290.61181640625	665.1239624023438	-2.846808671951294	1243.004638671875	622.2072143554688	-0.22209224104881287	1081.200927734375	715.0791625976562	2.1342976093292236	1131.027099609375	661.09521484375	-28.159631729125977	1078.4317626953125	781.2078857421875	158.62034606933594	908.0301513671875	740.9736938476562	95.4459457397461	875.1856079101562	431.6414489746094	84.77079772949219	1431.0963134765625
